<svg width="25" height="25" viewBox="0 0 25 25" fill="#fff" xmlns="http://www.w3.org/2000/svg"><path d="M7.73427 0.941348C6.45746 1.00159 5.58553 1.20535 4.82328 1.50487C4.03439 1.81232 3.36575 2.22488 2.70046 2.89257C2.03517 3.56025 1.62549 4.22938 1.32021 5.01947C1.02476 5.7834 0.824602 6.65605 0.768202 7.93358C0.711801 9.21111 0.699321 9.62176 0.705561 12.8805C0.711801 16.1393 0.726201 16.5477 0.788122 17.8279C0.849082 19.1045 1.05212 19.9762 1.35165 20.7387C1.65957 21.5276 2.07165 22.196 2.73958 22.8615C3.40751 23.527 4.07615 23.9357 4.86816 24.2415C5.63137 24.5365 6.50426 24.7376 7.78155 24.7935C9.05885 24.8494 9.46997 24.8624 12.7278 24.8562C15.9856 24.8499 16.3957 24.8355 17.6757 24.7748C18.9556 24.7141 19.8227 24.5096 20.5854 24.2115C21.3743 23.9029 22.0432 23.4915 22.7083 22.8233C23.3733 22.1552 23.7828 21.4856 24.0878 20.695C24.3835 19.9318 24.5844 19.0589 24.6398 17.7826C24.6957 16.5017 24.7089 16.0927 24.7027 12.8344C24.6964 9.57616 24.6818 9.16767 24.6211 7.88798C24.5604 6.60829 24.3571 5.73924 24.0578 4.97627C23.7494 4.18738 23.3378 3.51945 22.6701 2.85345C22.0024 2.18744 21.3323 1.77824 20.542 1.47391C19.7783 1.17847 18.9059 0.977108 17.6286 0.921908C16.3513 0.866707 15.9402 0.852547 12.6812 0.858787C9.42221 0.865027 9.01421 0.878947 7.73427 0.941348ZM7.87443 22.6347C6.70442 22.5838 6.06914 22.3894 5.64577 22.2267C5.08512 22.0107 4.68576 21.7496 4.26384 21.3317C3.84191 20.9139 3.58271 20.5131 3.36383 19.9536C3.19943 19.5303 3.00142 18.8957 2.9467 17.7257C2.88718 16.4611 2.8747 16.0814 2.86774 12.8776C2.86078 9.67384 2.87302 9.29463 2.92846 8.02958C2.97838 6.86053 3.17399 6.22452 3.33647 5.8014C3.55247 5.24003 3.81263 4.84139 4.23144 4.4197C4.65024 3.99802 5.04984 3.73834 5.60977 3.51945C6.03265 3.35433 6.66722 3.15801 7.83675 3.10233C9.10229 3.04233 9.48149 3.03033 12.6848 3.02337C15.8881 3.01641 16.2683 3.02841 17.5343 3.08409C18.7033 3.13497 19.3396 3.32865 19.7622 3.49209C20.3231 3.7081 20.7222 3.96754 21.1439 4.38706C21.5656 4.80659 21.8255 5.20475 22.0444 5.76588C22.2098 6.18756 22.4061 6.82189 22.4613 7.99214C22.5215 9.25767 22.5352 9.63712 22.541 12.8402C22.5467 16.0433 22.5355 16.4237 22.48 17.6882C22.4289 18.8583 22.235 19.4938 22.072 19.9176C21.856 20.478 21.5956 20.8776 21.1766 21.2991C20.7575 21.7205 20.3584 21.9802 19.7982 22.1991C19.3758 22.364 18.7405 22.5608 17.572 22.6164C16.3064 22.676 15.9272 22.6884 12.7227 22.6954C9.51821 22.7024 9.14021 22.6894 7.87467 22.6347M17.6572 6.44388C17.6576 6.72871 17.7426 7.007 17.9012 7.24356C18.0599 7.48011 18.2851 7.66431 18.5484 7.77284C18.8118 7.88138 19.1014 7.90939 19.3806 7.85332C19.6599 7.79725 19.9163 7.65963 20.1173 7.45786C20.3183 7.25608 20.455 6.99922 20.5101 6.71977C20.5651 6.44031 20.536 6.1508 20.4265 5.88786C20.317 5.62493 20.132 5.40037 19.8949 5.24259C19.6577 5.08481 19.3791 5.0009 19.0943 5.00147C18.7125 5.00223 18.3466 5.15461 18.0771 5.42511C17.8076 5.6956 17.6565 6.06205 17.6572 6.44388ZM6.54266 12.8695C6.54938 16.2727 9.31325 19.0253 12.7158 19.0188C16.1183 19.0123 18.8728 16.2487 18.8663 12.8455C18.8598 9.44223 16.0952 6.68893 12.6922 6.69565C9.28925 6.70237 6.53618 9.46671 6.54266 12.8695ZM8.70412 12.8651C8.70256 12.074 8.93563 11.3002 9.37387 10.6415C9.8121 9.98279 10.4358 9.46885 11.1661 9.16464C11.8965 8.86044 12.7006 8.77963 13.4769 8.93244C14.2531 9.08525 14.9666 9.46481 15.5271 10.0231C16.0877 10.5814 16.4701 11.2934 16.6259 12.0691C16.7818 12.8447 16.7042 13.6492 16.4029 14.3807C16.1016 15.1122 15.5901 15.738 14.9332 16.1788C14.2762 16.6196 13.5033 16.8558 12.7122 16.8573C12.1868 16.8585 11.6664 16.7561 11.1807 16.556C10.695 16.356 10.2534 16.0622 9.88119 15.6915C9.50899 15.3208 9.21348 14.8804 9.01151 14.3954C8.80955 13.9105 8.7051 13.3905 8.70412 12.8651Z" ></path></svg>