<svg width="114" height="40" viewBox="0 0 114 40" fill="none" xmlns="http://www.w3.org/2000/svg">
<rect width="113.628" height="40" transform="translate(0.0766296)" fill="white"/>
<path fill-rule="evenodd" clip-rule="evenodd" d="M59.9623 10.0003C59.9629 10.3008 59.9037 10.5984 59.788 10.8761C59.6723 11.1539 59.5024 11.4062 59.2881 11.6187C59.0738 11.8312 58.8192 11.9997 58.539 12.1145C58.2588 12.2292 57.9585 12.288 57.6553 12.2875C57.3522 12.2882 57.0518 12.2295 56.7716 12.1148C56.4913 12.0002 56.2367 11.8318 56.0223 11.6194C55.8078 11.407 55.6378 11.1547 55.522 10.877C55.4062 10.5994 55.3469 10.3017 55.3474 10.0013C55.3474 8.736 56.3415 7.71703 57.6553 7.71703C58.9681 7.75079 59.9623 8.76977 59.9623 10.0013V10.0003ZM50.449 14.6085V15.1726C50.449 15.1726 49.3486 13.7653 47.0066 13.7653C43.1384 13.7653 40.1199 16.6852 40.1199 20.7313C40.1199 24.7417 43.1013 27.6973 47.0066 27.6973C49.3847 27.6973 50.449 26.2543 50.449 26.2543V26.8531C50.449 27.1342 50.6624 27.3457 50.946 27.3457H53.8222V14.1169H50.946C50.8152 14.1202 50.6906 14.1733 50.5982 14.2652C50.5059 14.3572 50.4528 14.4808 50.45 14.6105L50.449 14.6085ZM50.449 23.0881C49.9178 23.8627 48.8515 24.5301 47.5728 24.5301C45.302 24.5301 43.5643 23.1228 43.5643 20.7303C43.5643 18.3388 45.302 16.9315 47.5728 16.9315C48.8155 16.9315 49.9519 17.6337 50.449 18.3716V23.0871V23.0881ZM55.9507 27.3438H59.358V14.1169H55.9507V27.3438ZM106.854 13.7643C104.511 13.7643 103.411 15.1726 103.411 15.1726V7.7498H100.004V27.3447H102.878C103.161 27.3447 103.375 27.0965 103.375 26.8521V26.2533C103.375 26.2533 104.475 27.6963 106.818 27.6963C110.687 27.6963 113.705 24.7407 113.705 20.7303C113.705 16.72 110.689 13.7653 106.853 13.7653L106.854 13.7643ZM106.286 24.4944C104.973 24.4944 103.943 23.826 103.41 23.0523V18.3388C103.943 17.6337 105.079 16.8968 106.286 16.8968C108.558 16.8968 110.297 18.3031 110.297 20.6956C110.297 23.0871 108.558 24.4934 106.286 24.4934V24.4944ZM98.2289 19.4988V27.3795H94.8217V19.8852C94.8217 17.7042 94.1101 16.8262 92.193 16.8262C91.1638 16.8262 90.0986 17.3526 89.4251 18.1273V27.3438H86.0179V14.1149H88.7136C88.9992 14.1149 89.2117 14.3632 89.2117 14.6085V15.1726C90.2058 14.1527 91.5186 13.7653 92.8324 13.7653C94.3236 13.7653 95.5652 14.1884 96.5604 15.0326C97.7669 16.0178 98.2279 17.2841 98.2279 19.5018L98.2289 19.4988ZM77.7452 13.7653C75.4032 13.7653 74.3029 15.1736 74.3029 15.1736V7.7498H70.8956V27.3447H73.7717C74.0543 27.3447 74.2678 27.0965 74.2678 26.8521V26.2533C74.2678 26.2533 75.3681 27.6963 77.7111 27.6963C81.5794 27.6963 84.5958 24.7407 84.5958 20.7303C84.6319 16.72 81.6145 13.7653 77.7452 13.7653ZM77.178 24.4954C75.8652 24.4954 74.836 23.827 74.3019 23.0533V18.3398C74.836 17.6347 75.9714 16.8977 77.178 16.8977C79.4498 16.8977 81.1896 18.3041 81.1896 20.6966C81.1896 23.0881 79.4498 24.4944 77.178 24.4944V24.4954ZM67.9483 13.7663C68.9785 13.7663 69.5116 13.9431 69.5116 13.9431V17.0745C69.5116 17.0745 66.6716 16.1251 64.8968 18.1303V27.3825H61.4895V14.1159H64.3637C64.6483 14.1159 64.8607 14.3622 64.8607 14.6085V15.1726C65.5001 14.4337 66.885 13.7653 67.9493 13.7653L67.9483 13.7663ZM32.5598 26.149C32.3824 25.7259 32.205 25.2691 32.0286 24.8817C31.744 24.2491 31.4594 23.6502 31.2109 23.0881L31.1758 23.0523C28.6899 17.6906 26.0742 12.389 23.3311 7.15192L23.2239 6.94038C22.9402 6.41202 22.6566 5.84791 22.372 5.28678C22.0173 4.65314 21.6625 3.98574 21.0943 3.35012C19.9589 1.9458 18.3254 1.17114 16.5857 1.17114C14.8119 1.17114 13.2135 1.9458 12.042 3.28259C11.5089 3.91523 11.12 4.58362 10.7643 5.21726C10.4797 5.77938 10.1961 6.3425 9.91245 6.87086L9.80522 7.07942C7.07138 12.359 4.4097 17.7072 1.96047 22.9808L1.9254 23.0523C1.67687 23.6154 1.39226 24.2143 1.10866 24.847C0.91824 25.2631 0.741107 25.6851 0.577523 26.1122C0.114535 27.4133 -0.0267664 28.6448 0.150612 29.9111C0.340816 31.198 0.866434 32.4136 1.67557 33.4377C2.4847 34.4618 3.54937 35.2591 4.76446 35.7508C5.68643 36.1381 6.64648 36.3129 7.6406 36.3129C9.21494 36.2688 10.7529 35.8334 12.1131 35.0467C13.5692 34.2382 14.9532 33.0772 16.5155 31.3889C18.0769 33.0772 19.4969 34.2392 20.9169 35.0477C22.2765 35.8353 23.8143 36.2708 25.3885 36.3139C26.3836 36.3139 27.3777 36.1391 28.2646 35.7518C30.7499 34.7656 32.4886 32.5141 32.8795 29.9121C33.1631 28.6805 33.0218 27.449 32.5588 26.148L32.5598 26.149ZM16.5506 27.9764C14.6335 25.5849 13.3919 23.3344 12.966 21.4345C12.7896 20.6251 12.7535 19.9219 12.8597 19.2893C12.9299 18.7261 13.1443 18.2325 13.4279 17.8115C14.1034 16.861 15.2398 16.2621 16.5526 16.2621C17.8654 16.2621 19.0379 16.8262 19.6763 17.8115C19.9609 18.2325 20.1733 18.7252 20.2445 19.2883C20.3507 19.9219 20.3146 20.6588 20.1383 21.4335C19.7124 23.2986 18.4697 25.5501 16.5526 27.9784L16.5506 27.9764ZM30.7138 29.631C30.5866 30.5372 30.2214 31.3944 29.6547 32.1167C29.088 32.839 28.3398 33.4011 27.4849 33.7466C26.6331 34.0982 25.7112 34.2035 24.7872 34.0982C23.8993 33.9929 23.0134 33.7109 22.0894 33.1845C20.8117 32.4794 19.534 31.3899 18.0428 29.772C20.3858 26.9217 21.8058 24.3196 22.338 21.9976C22.5686 21.0184 22.6286 20.0074 22.5153 19.0082C22.3826 18.1487 22.0546 17.3303 21.5563 16.6147C20.4559 15.0316 18.61 14.1169 16.5506 14.1169C14.4922 14.1169 12.6463 15.0674 11.5459 16.6147C11.0467 17.3297 10.719 18.1484 10.5879 19.0082C10.4375 20.0061 10.4979 21.0241 10.7653 21.9976C11.2964 24.3186 12.7525 26.9574 15.0604 29.8068C13.6053 31.4256 12.2925 32.5151 11.0148 33.2193C10.0928 33.7456 9.20393 34.0277 8.31704 34.133C7.40299 34.2338 6.4779 34.1131 5.62129 33.7814C4.76621 33.4355 4.0177 32.8732 3.45056 32.1508C2.88341 31.4285 2.5175 30.5712 2.38939 29.6648C2.27256 28.7381 2.38255 27.7973 2.71007 26.9217C2.8163 26.5701 2.99268 26.2185 3.17106 25.7964C3.41959 25.2333 3.70219 24.6344 3.9868 24.0385L4.02187 23.967C6.50166 18.6437 9.10457 13.3776 11.8285 8.17288L11.9358 7.96134C12.2194 7.43298 12.503 6.87086 12.7876 6.3425C13.0712 5.77938 13.3909 5.25202 13.7797 4.79516C14.5263 3.95098 15.5204 3.49215 16.6208 3.49215C17.7201 3.49215 18.7152 3.949 19.4598 4.79318C19.8507 5.25003 20.1693 5.77839 20.4539 6.3425C20.7375 6.86887 21.0212 7.43199 21.3058 7.96134L21.412 8.16991C24.1036 13.398 26.6956 18.6759 29.1866 24.0008V24.0365C29.4702 24.5997 29.7177 25.2323 30.0033 25.7944C30.1807 26.2175 30.3581 26.5691 30.4643 26.9207C30.7489 27.8344 30.8551 28.7153 30.7128 29.63L30.7138 29.631Z" fill="#1A1A19"/>
</svg>
