<svg width="115" height="40" viewBox="0 0 115 40" fill="none" xmlns="http://www.w3.org/2000/svg">
<rect width="114.8" height="40" transform="translate(0.123566)" fill="white"/>
<path d="M27.7631 26.8575L27.074 24.8033L26.385 26.8575H24.1837L25.983 28.1087L25.2939 30.1628L27.074 28.893L28.8541 30.1628L28.1651 28.1087L29.9452 26.8388L27.7631 26.8575ZM25.6767 13.879L30.1557 10.0134L27.0166 7.30566L19.5133 13.7856V19.1824L25.6767 13.879ZM30.1366 18.7716L27.0166 16.0638L19.5133 22.5438V27.9406L25.6767 22.6371L30.1366 18.7716ZM30.5003 19.089L27.3611 21.7968L34.5964 28.034V22.6371C34.6156 22.6371 30.5003 19.089 30.5003 19.089ZM27.3803 13.0199L34.6156 19.2384V13.8603L30.5194 10.3122L27.3803 13.0199ZM4.37286 20.9938H11.0913V25.681H4.37286V20.9938ZM4.37286 12.329H11.0913V17.0162H4.37286V12.329ZM12.3738 29.6773L15.3406 26.7828V20.9191L13.1394 18.9957L15.3598 17.1096V11.2272L12.3738 8.31407H0.123566V29.696L12.3738 29.6773ZM49.5838 17.5391H43.1141V12.3103H49.6029V17.5391H49.5838ZM53.8522 18.3794V11.2272L50.8279 8.33274H38.8457V29.696H43.095V21.5354H46.9232L49.6412 29.6773H53.9288L50.9619 21.1992L53.8522 18.3794ZM68.7247 17.5391H62.236V12.3103H68.7247V17.5391ZM72.974 18.3794V11.2272L69.9498 8.33274H57.9675V29.696H62.2168V21.5354H66.045L68.763 29.6773H73.0506L70.0837 21.1992L72.974 18.3794ZM81.932 29.696H86.2004V21.2179L92.9763 8.33274H88.3825L84.0566 16.6054L79.7882 8.33274H75.2135L81.9511 21.2926L81.932 29.696ZM111.964 29.696L114.95 26.8015V20.639L112.519 18.0993L104.212 16.2319V12.329H110.701V14.9994H114.95V11.2272L111.964 8.33274H102.968L99.9628 11.2272V17.3897L102.451 19.9854L110.701 21.7968V25.6997H104.212V23.0293H99.9628V26.8201L102.968 29.7146L111.964 29.696ZM99.0632 8.31407H95.6943L93.2252 13.0946H96.192L99.0632 8.31407Z" fill="#1A1A19"/>
</svg>
