<svg width="138" height="140" viewBox="0 0 138 140" fill="none" xmlns="http://www.w3.org/2000/svg">
<path d="M94.1605 90.783C89.7156 94.7277 84.1646 99.6362 74.0995 99.6362H68.0808C60.7974 99.6362 54.1728 96.9887 49.431 92.1901C44.7991 87.5012 42.2493 81.0839 42.2493 74.1177V65.8827C42.2493 58.9165 44.7991 52.4992 49.431 47.8103C54.1728 43.0116 60.7974 40.3683 68.0808 40.3683H74.0995C84.1768 40.3683 89.7156 45.2727 94.1605 49.2174C98.7762 53.2841 102.757 56.8384 113.376 56.8384C114.995 56.838 116.612 56.7088 118.211 56.452L118.174 56.3585C117.538 54.7791 116.792 53.2463 115.942 51.7713L108.845 39.4777C105.645 33.9357 101.043 29.3338 95.5003 26.1343C89.958 22.9348 83.6711 21.2506 77.2716 21.2508H63.0748C56.6752 21.2506 50.3883 22.9348 44.846 26.1343C39.3037 29.3338 34.7011 33.9357 31.501 39.4777L24.4046 51.7713C21.2056 57.3138 19.5215 63.6007 19.5215 70.0002C19.5215 76.3997 21.2056 82.6866 24.4046 88.2291L31.501 100.523C34.7011 106.065 39.3037 110.667 44.846 113.866C50.3883 117.066 56.6752 118.75 63.0748 118.75H77.2716C83.6711 118.75 89.958 117.066 95.5003 113.866C101.043 110.667 105.645 106.065 108.845 100.523L115.942 88.2494C116.792 86.7745 117.538 85.2416 118.174 83.6622L118.211 83.5728C116.613 83.3073 114.996 83.1713 113.376 83.1661C102.757 83.1661 98.7762 86.7 94.1605 90.7871" fill="#006BFF"/>
<path d="M74.0982 47.8304H68.0795C56.9937 47.8304 49.7103 55.7482 49.7103 65.8824V74.1175C49.7103 84.2516 56.9937 92.1695 68.0795 92.1695H74.0982C90.251 92.1695 88.9822 75.6994 113.374 75.6994C115.685 75.6968 117.991 75.9092 120.263 76.3338C121.003 72.1437 121.003 67.8562 120.263 63.6661C117.991 64.0887 115.685 64.301 113.374 64.3005C88.9741 64.3005 90.251 47.8304 74.0982 47.8304Z" fill="#006BFF"/>
<path d="M134.278 82.3526C130.124 79.3103 125.333 77.2509 120.268 76.3298C120.268 76.3745 120.268 76.4111 120.268 76.4518C119.832 78.8799 119.15 81.2575 118.234 83.5482C122.419 84.1962 126.389 85.8314 129.816 88.3184C129.816 88.3509 129.796 88.3916 129.784 88.4282C125.373 102.711 115.985 114.938 103.326 122.888C90.6664 130.838 75.5754 133.983 60.7942 131.753C46.0129 129.523 32.5221 122.064 22.7722 110.733C13.0224 99.4013 7.66051 84.9486 7.66051 70C7.66051 55.0514 13.0224 40.5987 22.7722 29.2673C32.5221 17.9359 46.0129 10.4775 60.7942 8.24704C75.5754 6.01658 90.6664 9.162 103.326 17.1119C115.985 25.0618 125.373 37.2889 129.784 51.5718C129.784 51.6084 129.804 51.6491 129.816 51.6816C126.39 54.169 122.419 55.8029 118.234 56.4478C119.149 58.7415 119.831 61.1218 120.268 63.5523C120.266 63.5902 120.266 63.6282 120.268 63.6661C125.333 62.7465 130.124 60.6885 134.278 57.6474C138.271 54.691 137.498 51.3522 136.892 49.3758C131.955 33.3617 121.436 19.6502 107.248 10.733C93.0592 1.81587 76.1424 -1.71525 59.5714 0.781331C43.0004 3.27792 27.8749 11.6365 16.9434 24.3383C6.01196 37.04 0 53.242 0 70C0 86.758 6.01196 102.96 16.9434 115.662C27.8749 128.363 43.0004 136.722 59.5714 139.219C76.1424 141.715 93.0592 138.184 107.248 129.267C121.436 120.35 131.955 106.638 136.892 90.6242C137.498 88.6478 138.271 85.309 134.278 82.3526Z" fill="#006BFF"/>
<path d="M118.211 56.4475C116.613 56.713 114.996 56.849 113.376 56.8542C102.758 56.8542 98.7762 53.3202 94.1646 49.2332C89.7157 45.2885 84.1769 40.38 74.0996 40.38H68.0809C60.7934 40.38 54.1729 43.0274 49.4311 47.8261C44.7992 52.515 42.2493 58.9322 42.2493 65.8985V74.1335C42.2493 81.0997 44.7992 87.517 49.4311 92.2058C54.1729 97.0045 60.7934 99.6479 68.0809 99.6479H74.0996C84.1769 99.6479 89.7157 94.7435 94.1646 90.7988C98.7762 86.7321 102.758 83.1778 113.376 83.1778C114.995 83.1782 116.612 83.3074 118.211 83.5641C119.129 81.2742 119.81 78.8964 120.244 76.4678C120.247 76.4272 120.247 76.3864 120.244 76.3458C117.972 75.9245 115.666 75.7135 113.355 75.7154C88.9552 75.7154 90.2321 92.1896 74.0793 92.1896H68.0606C56.9748 92.1896 49.6914 84.2677 49.6914 74.1335V65.8822C49.6914 55.748 56.9748 47.8302 68.0606 47.8302H74.0793C90.2321 47.8302 88.9633 64.2962 113.355 64.2962C115.666 64.3001 117.972 64.0891 120.244 63.6659C120.244 63.6293 120.244 63.5927 120.244 63.552C119.807 61.1215 119.126 58.7413 118.211 56.4475Z" fill="#0AE8F0"/>
<path d="M118.211 56.4475C116.613 56.713 114.996 56.849 113.376 56.8542C102.758 56.8542 98.7762 53.3202 94.1646 49.2332C89.7157 45.2885 84.1769 40.38 74.0996 40.38H68.0809C60.7934 40.38 54.1729 43.0274 49.4311 47.8261C44.7992 52.515 42.2493 58.9322 42.2493 65.8985V74.1335C42.2493 81.0997 44.7992 87.517 49.4311 92.2058C54.1729 97.0045 60.7934 99.6479 68.0809 99.6479H74.0996C84.1769 99.6479 89.7157 94.7435 94.1646 90.7988C98.7762 86.7321 102.758 83.1778 113.376 83.1778C114.995 83.1782 116.612 83.3074 118.211 83.5641C119.129 81.2742 119.81 78.8964 120.244 76.4678C120.247 76.4272 120.247 76.3864 120.244 76.3458C117.972 75.9245 115.666 75.7135 113.355 75.7154C88.9552 75.7154 90.2321 92.1896 74.0793 92.1896H68.0606C56.9748 92.1896 49.6914 84.2677 49.6914 74.1335V65.8822C49.6914 55.748 56.9748 47.8302 68.0606 47.8302H74.0793C90.2321 47.8302 88.9633 64.2962 113.355 64.2962C115.666 64.3001 117.972 64.0891 120.244 63.6659C120.244 63.6293 120.244 63.5927 120.244 63.552C119.807 61.1215 119.126 58.7413 118.211 56.4475Z" fill="#0AE8F0"/>
</svg>
