<svg width="134" height="40" viewBox="0 0 134 40" fill="none" xmlns="http://www.w3.org/2000/svg">
<rect width="133.543" height="40" transform="translate(0.134552)" fill="white"/>
<path d="M12.1886 13.4849H14.7407V18.2424H5.6635V13.4849H8.20403V10.6975H0.134552V13.4849H2.70211V27.4975H0.134552V30.2718H8.20403V27.4975H5.66157V20.996H14.7388V27.4975H12.1886V30.2718H20.2774V27.4975H17.7021V13.4849H20.2793V10.6975H12.1905M109.528 27.4975H101.574V20.9677H108.416V18.2048H101.573V13.4849H109.588V16.1631H112.406V10.6975H95.92V13.4849H98.6092V27.4975H95.92V30.2718H112.445V23.7495H109.53M40.5785 23.7495H37.6634V27.4975H29.7098V20.9677H36.5534V18.2048H29.7098V13.4849H37.7271V16.1631H40.5457V10.6975H24.0592V13.4849H26.7484V27.4975H24.0573V30.2718H40.5785M102.341 9.73128H108.123L106.644 8.01172H100.717M128.524 19.0787C126.507 18.5174 125.082 18.6455 123.03 17.9769C121.177 17.3704 120.81 16.2592 120.81 15.5228C120.81 14.7826 121.628 12.8634 124.54 12.8634C127.455 12.8634 129.362 14.7431 129.47 16.3986L129.482 16.391V16.3986H132.281V10.6918H129.572V11.9349L129.657 12.3229C129.638 12.2664 129.561 12.11 129.275 11.8332C129.271 11.8275 129.271 11.8238 129.271 11.8181C128.412 11.0647 126.775 10.2436 124.314 10.2436C121.331 10.2436 117.818 12.0479 117.818 15.536C117.818 18.9355 120.335 20.1221 122.47 20.672C124.609 21.2258 125.7 21.2258 127.484 21.6966C129.264 22.1675 130.418 23.2147 130.418 24.7666C130.418 26.2357 129.491 28.1624 125.723 28.1624C121.949 28.1624 120.459 26.1773 120.022 23.3371L119.991 23.3503H117.327V30.2775H120.111V28.9817L120.103 28.9723L120.003 28.6295C120.003 28.6295 120.103 28.8611 120.42 29.0758L120.447 29.1135C121.856 30.1682 123.706 30.8689 126.076 30.8689C128.721 30.8689 133.35 29.5448 133.35 24.8551C133.343 21.4989 131.516 19.9168 128.524 19.0768V19.0787ZM83.9761 27.4975V30.2718H92.1614V27.4975H89.478V13.4849H92.1614V10.6975H84.8448L79.9992 22.1373L79.8988 22.6986L79.8023 22.1279L74.9568 10.6956H67.6479V13.483H70.3255V27.4957H67.644V30.2699H75.8236V27.4975H73.2656V14.6112L73.285 13.7599L73.5224 14.4379L79.1015 27.4618H80.6884L86.2868 14.4342L86.4915 13.7486L86.5224 14.5208V27.4975" fill="#1A1A19"/>
<path d="M61.7126 23.4988C61.7126 22.3499 60.9269 20.9939 59.8477 20.3573C59.5839 20.2011 59.2865 20.107 58.979 20.0823C59.2415 20.0974 59.5968 20.0785 59.9307 19.9429C59.9418 19.9386 59.9536 19.9361 59.9655 19.9354C61.0581 19.4608 62.3825 18.0802 62.3825 15.7542C62.3825 14.0346 61.6238 12.6466 60.3361 11.7331C59.1315 10.8818 57.7029 10.6897 56.2763 10.6897H45.0408V13.4772H47.5698V27.518H45.0408V30.2942H53.0195V27.5161H50.5234V21.331H56.0388C57.9404 21.3536 58.6759 22.5741 58.7145 23.6231L58.8535 30.2904H64.367V27.518H61.7898L61.7126 23.4988ZM56.6354 18.6396H50.5253V13.479H56.3072C56.9056 13.479 57.6508 13.4602 58.2319 13.7484C58.9423 14.1006 59.6083 14.8596 59.6083 16.0989C59.6083 17.5303 58.2647 18.6396 56.6354 18.6396Z" fill="#1A1A19"/>
</svg>
