<svg width="144" height="150" viewBox="0 0 144 150" fill="none" xmlns="http://www.w3.org/2000/svg">
<path d="M110.011 49.3889V31.5264C112.371 30.4232 114.37 28.6723 115.774 26.4774C117.178 24.2826 117.93 21.7341 117.942 19.1286V18.7183C117.942 11.1216 111.783 4.96319 104.187 4.96319H103.776C100.128 4.96319 96.6296 6.41239 94.05 8.99198C91.4705 11.5716 90.0213 15.0702 90.0213 18.7183V19.1286C90.0333 21.7341 90.7851 24.2826 92.1891 26.4774C93.5932 28.6723 95.5918 30.4232 97.9523 31.5264V49.3889C91.1681 50.4277 84.7788 53.2405 79.4314 57.5427L30.4426 19.3869C30.7921 18.1258 30.9744 16.8293 30.9947 15.5277C31.0007 12.4622 30.0974 9.46378 28.3991 6.91171C26.7007 4.35963 24.2837 2.36856 21.4537 1.19035C18.6236 0.0121441 15.5077 -0.300273 12.5 0.292619C9.49241 0.885511 6.72817 2.35708 4.55699 4.52117C2.3858 6.68527 0.905211 9.44468 0.30249 12.4504C-0.30023 15.456 0.00202757 18.5729 1.17098 21.4068C2.33993 24.2407 4.32306 26.6643 6.86957 28.3709C9.41608 30.0776 12.4115 30.9906 15.4771 30.9947C18.159 30.982 20.7906 30.2661 23.1093 28.9182L71.3485 66.4562C67.0149 73.0029 64.7542 80.7032 64.8608 88.5536C64.9674 96.4039 67.4364 104.04 71.9461 110.467L57.2743 125.143C56.0883 124.764 54.8526 124.563 53.6076 124.546C51.0913 124.548 48.632 125.296 46.5406 126.695C44.4492 128.094 42.8195 130.082 41.8575 132.407C40.8955 134.732 40.6443 137.29 41.1357 139.758C41.6271 142.226 42.839 144.493 44.6183 146.272C46.3976 148.052 48.6644 149.264 51.1323 149.755C53.6002 150.246 56.1583 149.995 58.4835 149.033C60.8086 148.071 62.7964 146.441 64.1957 144.35C65.5949 142.259 66.3428 139.799 66.3448 137.283C66.3284 136.038 66.127 134.802 65.7472 133.616L80.262 119.096C84.9952 122.74 90.4996 125.253 96.3537 126.441C102.208 127.629 108.256 127.461 114.035 125.95C119.814 124.44 125.171 121.626 129.695 117.726C134.219 113.825 137.79 108.94 140.135 103.446C142.479 97.9525 143.535 91.9947 143.222 86.0296C142.908 80.0644 141.234 74.2502 138.326 69.0323C135.418 63.8144 131.355 59.3313 126.447 55.9264C121.539 52.5216 115.917 50.2853 110.011 49.3889ZM103.994 108.137C101.312 108.211 98.6416 107.746 96.1417 106.771C93.6418 105.795 91.3628 104.328 89.4393 102.457C87.5159 100.586 85.987 98.3479 84.943 95.8758C83.8991 93.4037 83.3612 90.7474 83.3612 88.0638C83.3612 85.3803 83.8991 82.724 84.943 80.2519C85.987 77.7798 87.5159 75.542 89.4393 73.6707C91.3628 71.7994 93.6418 70.3327 96.1417 69.3571C98.6416 68.3815 101.312 67.9169 103.994 67.9907C109.193 68.1728 114.119 70.3655 117.733 74.107C121.348 77.8485 123.369 82.8467 123.372 88.049C123.375 93.2513 121.358 98.2516 117.747 101.997C114.137 105.742 109.213 107.939 104.014 108.127" fill="#FF7A59"/>
</svg>
