<svg width="113" height="40" viewBox="0 0 113 40" fill="none" xmlns="http://www.w3.org/2000/svg">
<rect width="111.446" height="40" transform="translate(0.677094)" fill="white"/>
<path d="M12.742 9.21729V17.994H4.55112V9.21729H0.669281V30.1533H4.55112V21.6692H12.742V30.1533H16.6238V9.21729H12.742Z" fill="#1A1A19"/>
<path d="M29.0388 23.3882C29.0388 25.1435 27.6087 26.5515 25.8256 26.5515C24.0426 26.5515 22.6124 25.1435 22.6124 23.3882V14.4104H18.9349V23.3882C18.9349 27.1366 22.0181 30.1718 25.8256 30.1718C29.6332 30.1718 32.7164 27.1366 32.7164 23.3882V14.4104H29.0388V23.3882Z" fill="#1A1A19"/>
<path d="M56.368 15.3432C56.368 13.4964 57.6125 12.9296 58.9498 12.9296C60.0456 12.9296 61.4757 13.7524 62.423 14.7398L64.8375 11.9422C63.6302 10.3332 61.1971 9.23608 59.1912 9.23608C55.1979 9.23608 52.3005 11.54 52.3005 15.3615C52.3005 22.4559 61.1043 20.2069 61.1043 24.1747C61.1043 25.3998 59.897 26.4786 58.5226 26.4786C56.3495 26.4786 55.6437 25.4364 54.6407 24.321L51.9662 27.0637C53.6749 29.1299 55.7923 30.1904 58.3183 30.1904C62.1072 30.1904 65.1718 27.8499 65.1718 24.2113C65.1718 16.3123 56.368 18.7624 56.368 15.3432Z" fill="#1A1A19"/>
<path d="M110.821 26.8072C108.648 26.8072 108.017 25.8747 108.017 24.4668V18.1768H111.397V14.9953H108.035V10.7898L104.302 12.4354V25.2347C104.302 28.5077 106.605 30.1533 109.744 30.1533C110.246 30.1533 110.728 30.1167 111.211 30.0436L112.121 26.7524C111.713 26.7706 111.23 26.8072 110.821 26.8072Z" fill="#1A1A19"/>
<path d="M43.0836 14.5203C41.2634 14.5203 39.9819 15.0323 38.756 16.239V9.3457H35.0599V22.1267C35.0599 26.9173 38.5703 30.1903 42.5264 30.1903C46.9097 30.1903 50.7544 26.8625 50.7544 22.3644C50.7359 17.9212 47.2069 14.5203 43.0836 14.5203ZM43.0465 26.5151C40.7248 26.5151 38.8675 24.6683 38.8675 22.401C38.8675 20.1154 40.7434 18.2869 43.0465 18.2869C45.3681 18.2869 47.2255 20.1337 47.2255 22.401C47.2441 24.6683 45.3681 26.5151 43.0465 26.5151Z" fill="#1A1A19"/>
<path d="M83.1607 22.1633C83.1607 17.6652 79.316 14.3374 74.9327 14.3374C70.9951 14.3374 67.4662 17.6104 67.4662 22.401V35.182H71.1623V28.2886C72.3881 29.4772 73.6697 30.0074 75.4899 30.0074C79.6132 29.9891 83.1607 26.5882 83.1607 22.1633ZM79.6689 22.1084C79.6689 24.394 77.793 26.2225 75.4899 26.2225C73.1868 26.2225 71.3108 24.3757 71.3108 22.1084C71.3108 19.8411 73.1868 17.9943 75.4899 17.9943C77.793 17.9943 79.6689 19.8411 79.6689 22.1084Z" fill="#1A1A19"/>
<path d="M95.0614 14.154V10.497C96.0644 10.0399 96.6959 9.05252 96.7145 7.95544V7.86402C96.7145 6.30982 95.4329 5.04817 93.8542 5.04817H93.7613C92.1826 5.04817 90.901 6.30982 90.901 7.86402V7.95544C90.901 9.03424 91.5511 10.0216 92.554 10.497V14.154C91.1425 14.3734 89.8237 14.9402 88.7093 15.8179L78.5497 8.02858C78.624 7.77259 78.6611 7.49832 78.6611 7.24233C78.6611 5.487 77.231 4.07908 75.4479 4.06079C73.6649 4.06079 72.2347 5.46872 72.2162 7.22405C72.2162 8.97938 73.6463 10.3873 75.4294 10.4056C75.9866 10.4056 76.5252 10.2593 77.0081 9.98504L87.0192 17.6463C85.1804 20.3891 85.2175 23.9546 87.1492 26.6424L84.1031 29.6411C83.8617 29.568 83.6017 29.5314 83.3416 29.5131C81.8743 29.5131 80.7042 30.6833 80.7042 32.1096C80.7042 33.554 81.8929 34.706 83.3416 34.706C84.7904 34.706 85.979 33.5358 85.979 32.1096C85.979 31.8536 85.9419 31.5976 85.849 31.3599L88.8579 28.3978C92.4054 31.0856 97.5131 30.4456 100.243 26.935C102.974 23.4426 102.324 18.4143 98.7575 15.7264C97.7174 14.9036 96.4359 14.3551 95.0614 14.154ZM93.817 26.167C91.5139 26.167 89.6566 24.3203 89.6566 22.053C89.6566 19.7857 91.5325 17.9572 93.8356 17.9572C96.1387 17.9572 97.996 19.8039 97.996 22.053C97.996 24.3203 96.1201 26.167 93.817 26.167Z" fill="#1A1A19"/>
</svg>
