<?xml version="1.0" encoding="utf-8"?>
<!-- Generator: Adobe Illustrator 27.4.1, SVG Export Plug-In . SVG Version: 6.00 Build 0)  -->
<svg version="1.1" id="Layer_1" xmlns="http://www.w3.org/2000/svg" xmlns:xlink="http://www.w3.org/1999/xlink" x="0px" y="0px"
	 viewBox="0 0 1000 280" style="enable-background:new 0 0 1000 280;" xml:space="preserve">
<style type="text/css">
	.st0{fill:#1A1A19;}
</style>
<g>
	<path class="st0" d="M195.2,132.8c1.9-0.2,3.7-0.2,5.4,0c1-2.2,1.1-6.1,0.3-10.3c-1.3-6.2-3.1-10-6.7-9.4
		c-3.6,0.6-3.8,5.1-2.5,11.3C192.5,128,193.8,131,195.2,132.8z"/>
	<path class="st0" d="M164,137.7c2.6,1.1,4.2,1.9,4.8,1.2c0.4-0.4,0.3-1.2-0.3-2.2c-1.3-2.1-3.9-4.2-6.7-5.4
		c-5.7-2.5-12.6-1.6-17.8,2.1c-1.7,1.3-3.4,3-3.2,4.1c0.1,0.3,0.3,0.6,0.9,0.7c1.4,0.2,6.4-2.4,12.2-2.7
		C158,135.3,161.4,136.6,164,137.7z"/>
	<path class="st0" d="M158.8,140.7c-3.4,0.5-5.3,1.7-6.5,2.7c-1,0.9-1.7,1.9-1.7,2.6c0,0.3,0.1,0.5,0.3,0.6c0.2,0.1,0.3,0.2,0.6,0.2
		c0.8,0,2.5-0.7,2.5-0.7c4.7-1.7,7.8-1.5,10.9-1.1c1.7,0.2,2.5,0.3,2.9-0.3c0.1-0.2,0.2-0.5-0.1-1.1
		C166.9,142.4,163.5,140.2,158.8,140.7z"/>
	<path class="st0" d="M184.7,151.7c2.3,1.1,4.8,0.7,5.7-1c0.8-1.7-0.4-4-2.7-5.1c-2.3-1.1-4.8-0.7-5.7,1
		C181.2,148.3,182.4,150.6,184.7,151.7z"/>
	<path class="st0" d="M199.5,138.8c-1.9,0-3.4,2-3.5,4.6c0,2.6,1.4,4.7,3.3,4.7c1.9,0,3.4-2,3.5-4.6
		C202.8,140.9,201.3,138.8,199.5,138.8z"/>
	<path class="st0" d="M72,184.7c-0.5,0.1-1.1,0.3-1.7,0.2c-1.4,0-2.5-0.6-3.2-1.6c-0.9-1.3-0.8-3.3,0.1-5.5c0.1-0.3,0.3-0.6,0.4-1
		c1.5-3.4,4-9,1.2-14.3c-2.1-4-5.6-6.5-9.7-7.1c-4-0.5-8.1,1-10.7,3.9c-4.1,4.6-4.8,10.8-4,13c0.3,0.8,0.8,1,1.1,1.1
		c0.7,0.1,1.7-0.4,2.4-2.2c0-0.1,0.1-0.3,0.2-0.6c0.3-0.9,0.8-2.7,1.7-4c1.1-1.7,2.7-2.8,4.7-3.2c2-0.4,4,0,5.7,1.1
		c2.9,1.9,4,5.4,2.8,8.8c-0.6,1.8-1.7,5.1-1.4,7.8c0.5,5.6,3.9,7.8,7,8c3,0.1,5.1-1.6,5.6-2.8c0.3-0.7,0-1.2-0.1-1.4
		C73.5,184.4,72.8,184.6,72,184.7z"/>
	<path class="st0" d="M246.6,174.8c-0.1-0.4-0.9-3.1-1.9-6.4c-1-3.3-2.1-5.6-2.1-5.6c4.1-6.1,4.2-11.6,3.6-14.7
		c-0.6-3.8-2.2-7.1-5.4-10.5c-3.2-3.4-9.8-6.9-19.1-9.5c-1.1-0.3-4.6-1.3-4.9-1.3c0-0.2-0.3-11.5-0.5-16.3c-0.2-3.5-0.5-9-2.1-14.3
		c-2-7.3-5.5-13.6-9.9-17.7C216.5,66,224.1,52.1,224,40.3c0-22.8-28-29.7-62.6-15.4c0,0-7.3,3.1-7.3,3.1c0,0-13.2-13-13.4-13.1
		C101.4-19.5-21.7,117.3,17.7,150.5l8.6,7.3c-2.2,5.8-3.1,12.4-2.4,19.5c0.9,9.1,5.6,17.9,13.3,24.7c7.3,6.4,16.8,10.5,26.1,10.5
		c15.3,35.3,50.3,56.9,91.3,58.1c44,1.3,80.9-19.3,96.4-56.4c1-2.6,5.3-14.3,5.3-24.7C256.2,179.1,250.4,174.8,246.6,174.8z
		 M66.6,202.6c-1.3,0.2-2.7,0.3-4.1,0.3c-13.3-0.4-27.6-12.3-29.1-26.5c-1.6-15.7,6.4-27.8,20.6-30.6c1.7-0.3,3.7-0.5,6-0.4
		c7.9,0.4,19.7,6.5,22.3,23.9C84.7,184.5,81,200.1,66.6,202.6z M51.7,136.3c-8.8,1.7-16.6,6.7-21.4,13.6c-2.8-2.4-8.1-7-9.1-8.8
		c-7.6-14.4,8.3-42.5,19.4-58.3c27.4-39.2,70.4-68.8,90.3-63.4c3.2,0.9,13.9,13.3,13.9,13.3s-19.9,11-38.3,26.4
		C81.8,78.3,63,106.2,51.7,136.3z M102.4,82.7c9.8-11.3,21.8-21.1,32.5-26.6c0.4-0.2,0.8,0.2,0.6,0.6c-0.9,1.5-2.5,4.9-3,7.4
		c-0.1,0.4,0.3,0.7,0.7,0.5c6.7-4.6,18.3-9.5,28.5-10.1c0.4,0,0.7,0.5,0.3,0.8c-1.6,1.2-3.3,2.8-4.5,4.5c-0.2,0.3,0,0.7,0.3,0.7
		c7.2,0.1,17.3,2.6,23.9,6.3c0.4,0.3,0.1,1.1-0.4,1c-10-2.3-26.3-4-43.2,0.1c-15.1,3.7-26.7,9.4-35.1,15.5
		C102.6,83.7,102.1,83.1,102.4,82.7z M247.1,193c-1.9,11.6-6.8,21-15.1,29.6c-5,5.4-11.1,10.1-18.1,13.6c-3.7,2-7.7,3.6-11.8,5
		c-31.2,10.2-63.1-1-73.4-25.1c-0.8-1.8-1.5-3.7-2.1-5.7c-4.4-15.8-0.7-34.8,11-46.8c0,0,0,0,0,0c0.7-0.8,1.4-1.7,1.4-2.8
		c0-0.9-0.6-1.9-1.1-2.6c-4.1-5.9-18.2-16-15.3-35.4c2-14,14.3-23.8,25.7-23.3c1,0,1.9,0.1,2.9,0.2c4.9,0.3,9.3,0.9,13.3,1.1
		c6.8,0.3,12.9-0.7,20.2-6.7c2.4-2,4.4-3.8,7.7-4.4c0.3-0.1,1.2-0.4,3-0.3c1.8,0.1,3.5,0.6,5,1.6c5.8,3.9,6.6,13.2,6.9,20.1
		c0.2,3.9,0.6,13.4,0.8,16.1c0.4,6.2,2,7.1,5.3,8.2c1.9,0.6,3.6,1.1,6.1,1.8c7.7,2.2,12.3,4.4,15.1,7.2c1.7,1.8,2.5,3.6,2.8,5.4
		c0.9,6.6-5.1,14.8-21.1,22.2c-17.5,8.1-38.7,10.2-53.4,8.5c-1.1-0.1-5.1-0.6-5.1-0.6c-11.7-1.6-18.4,13.6-11.4,24
		c4.5,6.7,16.9,11.1,29.3,11.1c28.4,0,50.2-12.1,58.3-22.6c0.2-0.3,0.3-0.3,0.6-0.9c0.4-0.6,0.1-0.9-0.4-0.6
		c-6.6,4.5-36,22.5-67.5,17.1c0,0-3.8-0.6-7.3-2c-2.8-1.1-8.6-3.7-9.3-9.7c25.4,7.9,41.4,0.4,41.4,0.4c0.3-0.1,0.5-0.5,0.5-0.8
		c0-0.4-0.4-0.7-0.8-0.7c0,0-20.8,3.1-40.5-4.1c2.1-7,7.8-4.4,16.4-3.8c15.5,0.9,29.4-1.3,39.7-4.3c8.9-2.6,20.6-7.6,29.7-14.8
		c3.1,6.7,4.1,14.1,4.1,14.1s2.4-0.4,4.4,0.8C246.6,184.4,248,186.8,247.1,193z M151,191.9C151,191.9,151,191.9,151,191.9
		C151,192,151,192,151,191.9C151,192,151,191.9,151,191.9z"/>
	<path class="st0" d="M397.6,154.2c-20.7,0-21.1,22.6-26,22.6c-1,0-1.8-0.9-1.8-2.1c0-1.7,0.4-3.1,0.4-5.7c0-8.1-5.7-14.7-17.7-14.7
		c-10.2,0-17.6,5.1-22.1,14.5c-2.3,4.8-2.1,8.1-4.4,8.1c-0.9,0-1.5-0.8-1.5-2c0-3.5,3.1-6.6,3.1-14c0-1.9-0.2-3.6-0.5-4.9h-19.7
		v76.3h26.7v-41.4c0-8.2,3.5-13.4,9.5-13.4c4,0,7.5,3.5,7.5,9.8v45h26.7v-41.4c0-9.2,4.2-13.4,9.5-13.4c4.4,0,7.5,4.1,7.5,9.8v45
		h26.4v-46.9C421.1,164.9,413,154.2,397.6,154.2z"/>
	<rect x="554" y="134.5" class="st0" width="26.4" height="97.7"/>
	<path class="st0" d="M589.1,193.1c0,26,16.8,40.9,38.6,40.9c12.5,0,22.1-4.9,27.9-9.8v-25.2c-5.9,4.1-15.1,8.7-24.9,8.7
		c-12.2,0-18.6-5.1-18.6-13.9c0-8.4,7.4-13.7,18.2-13.7c9.8,0,18.8,3.9,25.3,8.4v-26.7c-5.6-4.2-15.4-7.8-27.9-7.8
		C604.3,154.1,589.1,168.7,589.1,193.1z"/>
	<path class="st0" d="M713.8,154.4c-10.7,0-17,5-21.5,14.2c-2,4.1-2.2,8.1-4.4,8.1c-0.9,0-1.5-0.8-1.5-2c0-4.2,5-10.5,5-29.2
		c0-4.7-0.5-8.3-1.4-10.8h-23.1v97.6h26.7v-41.1c0-7.7,4-13.6,10.2-13.6c4.6,0,7.8,3.7,7.8,9.8v44.9h26.7v-47.8
		C738.4,164.5,729.7,154.4,713.8,154.4z"/>
	<path class="st0" d="M959,154.1c-11.8,0-17.8,6.7-21.2,12.9c-2.7,4.9-3.1,9.6-5.4,9.6c-1.1,0-1.7-0.7-1.7-2c0-2.3,3.1-6.3,3.1-12.8
		c0-2.6-0.2-4.6-0.6-6h-20v95.9h26.9v-30.1c3.4,7.3,10.5,12.1,20.3,12.1c17.6,0,29.6-14.5,29.6-39.8
		C990,170.5,978.9,154.1,959,154.1z M951.8,216.2c-5.4,0-11.3-5.6-11.3-19.7c0-12.3,4.8-19.5,11.3-19.5c7.4,0,11.6,7.2,11.6,19.5
		C963.4,210.3,958.6,216.2,951.8,216.2z"/>
	<path class="st0" d="M468.9,154.1c-13.8,0-26.4,3.4-35.2,7.8v22.1c10.2-5.5,20.7-9.6,29.9-9.6c9.8,0,14,5.2,13.4,12
		c-4-0.4-8.4-0.6-13.7-0.6c-20.9,0-34,8.2-34,25.9c0,14.6,11.4,22.1,23.8,22.1c12.1,0,20.5-5.8,25.3-14.5c2.8-5,2.5-8,4.3-8
		c0.9,0,1.5,0.6,1.5,1.6c0,3.2-0.9,5.1-0.9,9.4c0,4,0.5,7.4,1.4,9.9h19.2v-40.9C503.8,168.1,493.2,154.1,468.9,154.1z M459.9,215.1
		c-5,0-7.6-2.2-7.6-5.9c0-4.9,4.6-8.7,16.6-8.7c2.6,0,5,0.1,7.2,0.3C475,207.7,468.9,215.1,459.9,215.1z"/>
	<path class="st0" d="M564.1,83.9V41.1h-18.4v40.6c0,10.1-6.7,16.8-15.6,16.8c-8.9,0-15.6-6.7-15.6-16.8V41.1h-18.4l0.1,42.8
		c0,18.7,14.9,32.3,33.9,32.3C549.2,116.2,564.1,102.6,564.1,83.9z"/>
	<polygon class="st0" points="635.1,114.8 653.5,114.8 653.5,58.3 675.4,58.3 675.4,41.1 613.2,41.1 613.2,58.3 635.1,58.3 	"/>
	<rect x="583" y="41.1" class="st0" width="18.4" height="73.6"/>
	<polygon class="st0" points="444,114.8 462.4,114.8 462.4,58.3 484.3,58.3 484.3,41.1 422.1,41.1 422.1,58.3 444,58.3 	"/>
	<polygon class="st0" points="325.7,78 325.7,41.1 307.4,41.1 307.4,114.8 325.7,114.8 	"/>
	<path class="st0" d="M362.9,74.1c0-10.1,6.7-16.8,15.6-16.8c8.9,0,15.6,6.7,15.6,16.8v40.6h18.4l-0.1-42.8
		c0-18.7-15-32.3-33.9-32.3c-19,0-33.9,13.6-33.9,32.3v42.8h18.4V74.1z"/>
	<path class="st0" d="M878.5,154.2c-20.7,0-21.1,22.6-26,22.6c-1,0-1.8-0.9-1.8-2.1c0-1.7,0.4-3.1,0.4-5.7c0-8.1-5.7-14.7-17.7-14.7
		c-10.2,0-17.6,5.1-22.1,14.5c-2.3,4.8-2.1,8.1-4.4,8.1c-0.9,0-1.5-0.8-1.5-2c0-3.5,3.1-6.6,3.1-14c0-1.9-0.2-3.6-0.5-4.9h-19.7
		v76.3H815v-41.4c0-8.2,3.5-13.4,9.5-13.4c4,0,7.5,3.5,7.5,9.8v45h26.7v-41.4c0-9.2,4.2-13.4,9.5-13.4c4.4,0,7.5,4.1,7.5,9.8v45
		h26.4v-46.9C902.1,164.9,893.9,154.2,878.5,154.2z"/>
	<path class="st0" d="M763,161.2c-5.6,0-10-0.8-13.3-2.4v73.4h26.4v-73.4C772.7,160.3,768.6,161.2,763,161.2z"/>
	<path class="st0" d="M762.8,134.1c-10.9,0-16.6,4.8-16.6,10.4c0,6,6.8,10.4,16.6,10.4c9.9,0,16.6-4.4,16.6-10.4
		C779.5,138.9,773.7,134.1,762.8,134.1z"/>
	<path class="st0" d="M529,161.2c-5.6,0-10-0.8-13.3-2.4v73.4h26.4v-73.4C538.7,160.3,534.6,161.2,529,161.2z"/>
	<path class="st0" d="M528.8,134.1c-10.9,0-16.6,4.8-16.6,10.4c0,6,6.8,10.4,16.6,10.4c9.9,0,16.6-4.4,16.6-10.4
		C545.5,138.9,539.8,134.1,528.8,134.1z"/>
</g>
</svg>
