<svg width="108" height="108" viewBox="0 0 108 108" fill="none" xmlns="http://www.w3.org/2000/svg">
<path d="M22.7449 68.2221C22.7449 74.4556 17.6528 79.5477 11.4193 79.5477C5.18588 79.5477 0.09375 74.4556 0.09375 68.2221C0.09375 61.9887 5.18588 56.8965 11.4193 56.8965H22.7449V68.2221Z" fill="#E01E5A"/>
<path d="M28.4531 68.222C28.4531 61.9886 33.5453 56.8965 39.7787 56.8965C46.0122 56.8965 51.1043 61.9886 51.1043 68.222V96.5799C51.1043 102.813 46.0122 107.906 39.7787 107.906C33.5453 107.906 28.4531 102.813 28.4531 96.5799V68.222Z" fill="#E01E5A"/>
<path d="M39.7787 22.7449C33.5453 22.7449 28.4531 17.6528 28.4531 11.4193C28.4531 5.18588 33.5453 0.09375 39.7787 0.09375C46.0122 0.09375 51.1043 5.18588 51.1043 11.4193V22.7449H39.7787Z" fill="#36C5F0"/>
<path d="M39.7772 28.4507C46.0107 28.4507 51.1028 33.5428 51.1028 39.7763C51.1028 46.0097 46.0107 51.1019 39.7772 51.1019H11.4193C5.18588 51.1019 0.09375 46.0097 0.09375 39.7763C0.09375 33.5428 5.18588 28.4507 11.4193 28.4507H39.7772Z" fill="#36C5F0"/>
<path d="M85.2559 39.7763C85.2559 33.5428 90.348 28.4507 96.5814 28.4507C102.815 28.4507 107.907 33.5428 107.907 39.7763C107.907 46.0097 102.815 51.1019 96.5814 51.1019H85.2559V39.7763Z" fill="#2EB67D"/>
<path d="M79.5477 39.7772C79.5477 46.0107 74.4555 51.1028 68.2221 51.1028C61.9886 51.1028 56.8965 46.0107 56.8965 39.7772V11.4193C56.8965 5.18588 61.9886 0.09375 68.2221 0.09375C74.4555 0.09375 79.5477 5.18588 79.5477 11.4193V39.7772Z" fill="#2EB67D"/>
<path d="M68.2221 85.2546C74.4555 85.2546 79.5477 90.3468 79.5477 96.5802C79.5477 102.814 74.4555 107.906 68.2221 107.906C61.9886 107.906 56.8965 102.814 56.8965 96.5802V85.2546H68.2221Z" fill="#ECB22E"/>
<path d="M68.2221 79.5489C61.9886 79.5489 56.8965 74.4568 56.8965 68.2233C56.8965 61.9898 61.9886 56.8977 68.2221 56.8977H96.58C102.813 56.8977 107.906 61.9898 107.906 68.2233C107.906 74.4568 102.813 79.5489 96.58 79.5489H68.2221Z" fill="#ECB22E"/>
</svg>
