<svg width="180" height="50" viewBox="0 0 180 50" fill="none" xmlns="http://www.w3.org/2000/svg">
<g clip-path="url(#clip0_793_3117)">
<path d="M42.2697 33.7576L42.2445 33.6773L58.249 19.0255V11.9659H32.5724V19.0255H47.9091L47.9343 19.0932L32.0862 33.7576V40.8174H58.5068V33.7576H42.2697Z" fill="#201515"/>
<path d="M74.2661 11.2934C71.3044 11.2934 68.8906 11.7401 67.0247 12.6335C65.287 13.4121 63.8229 14.6949 62.8228 16.3155C61.8663 17.9467 61.2655 19.7619 61.0603 21.6418L68.851 22.7367C69.1329 21.0768 69.6967 19.9002 70.5419 19.2069C71.5031 18.4818 72.6875 18.1155 73.8899 18.1713C75.4711 18.1713 76.618 18.594 77.3312 19.4394C78.0371 20.2849 78.3964 21.4559 78.3964 22.9988V23.7682H70.9055C67.0924 23.7682 64.3532 24.6136 62.6878 26.3046C61.0221 27.9955 60.1909 30.2275 60.1937 33.0006C60.1937 35.8414 61.025 37.9551 62.6878 39.3415C64.3503 40.7282 66.4415 41.4172 68.9612 41.4086C72.0863 41.4086 74.4904 40.3336 76.1727 38.1833C77.1663 36.8618 77.8759 35.3492 78.2567 33.7404H78.5401L79.6139 40.7998H86.6735V22.9228C86.6735 19.2281 85.6997 16.3662 83.7525 14.3371C81.8049 12.308 78.643 11.2934 74.2661 11.2934ZM76.735 33.3304C75.6147 34.2646 74.1481 34.7296 72.3218 34.7296C70.8166 34.7296 69.7712 34.4661 69.1851 33.9391C68.8996 33.6897 68.6721 33.3806 68.5195 33.0335C68.3668 32.6865 68.2923 32.3101 68.3017 31.9311C68.2847 31.5737 68.3413 31.2165 68.4669 30.8815C68.5925 30.5465 68.7851 30.2406 69.0328 29.9823C69.3007 29.7311 69.6167 29.5368 69.962 29.4111C70.3072 29.2854 70.6741 29.2309 71.0409 29.251H78.409V29.7371C78.4241 30.4243 78.2809 31.1057 77.9907 31.7287C77.7002 32.3517 77.2707 32.8997 76.735 33.3304Z" fill="#201515"/>
<path d="M129.359 11.9659H121.019V40.8214H129.359V11.9659Z" fill="#201515"/>
<path d="M178.599 11.9659C176.243 11.9659 174.386 12.7973 173.027 14.46C172.052 15.6549 171.311 17.4206 170.804 19.7568H170.558L169.468 11.9659H162.345V40.8174H170.685V26.0217C170.685 24.156 171.122 22.7258 171.996 21.731C172.869 20.7362 174.481 20.2387 176.832 20.2387H179.998V11.9659H178.599Z" fill="#201515"/>
<path d="M154.075 12.9085C152.128 11.7503 149.672 11.1725 146.707 11.1753C142.04 11.1753 138.388 12.5041 135.75 15.1617C133.112 17.8192 131.793 21.4829 131.793 26.1527C131.726 28.9759 132.342 31.7735 133.59 34.3071C134.732 36.5648 136.51 38.4386 138.705 39.6968C140.914 40.9737 143.542 41.6134 146.589 41.616C149.224 41.616 151.425 41.2102 153.192 40.3988C154.853 39.6698 156.3 38.5272 157.394 37.0803C158.436 35.6598 159.209 34.061 159.676 32.3626L152.49 30.3503C152.188 31.4548 151.605 32.4624 150.799 33.2756C149.987 34.0873 148.628 34.4931 146.72 34.4931C144.451 34.4931 142.76 33.8435 141.647 32.5443C140.84 31.6059 140.333 30.2658 140.108 28.5284H159.787C159.867 27.7168 159.909 27.0361 159.909 26.4866V24.69C159.957 22.2764 159.458 19.8833 158.451 17.6896C157.508 15.6912 155.982 14.0246 154.075 12.9085ZM146.466 18.0531C149.848 18.0531 151.766 19.7173 152.219 23.0456H140.256C140.446 21.935 140.906 20.8883 141.597 19.9977C142.693 18.6985 144.316 18.0503 146.466 18.0531Z" fill="#201515"/>
<path d="M125.277 0.336355C124.65 0.315017 124.025 0.420023 123.438 0.645142C122.852 0.870261 122.318 1.21089 121.866 1.64679C121.421 2.08687 121.071 2.61475 120.841 3.19691C120.61 3.77908 120.503 4.4028 120.526 5.02859C120.503 5.65841 120.611 6.2861 120.842 6.87251C121.073 7.45895 121.422 7.9915 121.868 8.43692C122.314 8.88235 122.847 9.23112 123.433 9.46148C124.02 9.69185 124.648 9.79884 125.277 9.7758C125.903 9.79945 126.527 9.6925 127.109 9.46177C127.692 9.23108 128.219 8.88163 128.659 8.43574C129.095 7.98523 129.436 7.45117 129.66 6.86563C129.885 6.28009 129.989 5.65524 129.965 5.02859C129.994 4.40564 129.893 3.78353 129.668 3.20197C129.443 2.62042 129.099 2.0922 128.658 1.65105C128.217 1.20989 127.689 0.865495 127.108 0.639853C126.527 0.414212 125.904 0.312294 125.282 0.340587L125.277 0.336355Z" fill="#201515"/>
<path d="M108.05 11.1753C105.209 11.1753 102.927 12.0673 101.202 13.8512C99.925 15.1729 98.9883 17.1457 98.3907 19.7694H98.1243L97.0339 11.9785H89.9105V49.1111H98.251V33.8167H98.5556C98.8101 34.8365 99.1669 35.8279 99.6208 36.7757C100.326 38.3198 101.483 39.614 102.939 40.4873C104.449 41.311 106.149 41.7211 107.868 41.6753C111.36 41.6753 114.019 40.3156 115.845 37.5958C117.671 34.8764 118.585 31.0817 118.585 26.2118C118.585 21.5083 117.701 17.8263 115.934 15.1659C114.167 12.5055 111.539 11.1753 108.05 11.1753ZM108.895 32.0835C107.923 33.4926 106.401 34.1972 104.33 34.1972C103.476 34.2366 102.625 34.072 101.847 33.7169C101.069 33.3618 100.387 32.8265 99.8577 32.1554C98.778 30.7999 98.2399 28.9441 98.2427 26.588V26.0385C98.2427 23.6458 98.7809 21.814 99.8577 20.543C100.934 19.272 102.425 18.6435 104.33 18.6576C106.438 18.6576 107.97 19.3269 108.925 20.6656C109.88 22.0042 110.358 23.8713 110.358 26.2667C110.364 28.7439 109.879 30.6829 108.904 32.0835H108.895Z" fill="#201515"/>
<path d="M28.8555 33.7574H0V40.8255H28.8555V33.7574Z" fill="#FF4F00"/>
</g>
<defs>
<clipPath id="clip0_793_3117">
<rect width="180" height="48.96" fill="white" transform="translate(0 0.333313)"/>
</clipPath>
</defs>
</svg>
